<svg width="72" height="86" viewBox="0 0 72 86" fill="none" xmlns="http://www.w3.org/2000/svg">
<path d="M3 80C1.61929 80 0.5 81.1193 0.5 82.5C0.5 83.8807 1.61929 85 3 85V80ZM47.5 0L45.8241 28.8188L71.6199 15.8608L47.5 0ZM3 85C9.81239 85 17.309 85.3118 24.2438 85.1556C31.2595 84.9976 38.1751 84.366 44.2751 82.3768C50.4268 80.3708 55.8244 76.9578 59.6426 71.2305C63.4381 65.5373 65.5 57.8161 65.5 47.5H60.5C60.5 57.1839 58.5619 63.8377 55.4824 68.457C52.4256 73.0422 48.0732 75.8792 42.7249 77.6232C37.3249 79.384 30.9905 80.0024 24.1312 80.1569C17.191 80.3132 10.1876 80 3 80V85ZM65.5 47.5C65.5 36.4458 62.9778 26.9169 59.9251 19.1875L55.2746 21.0242C58.1564 28.3207 60.5 37.2195 60.5 47.5H65.5Z" fill="white"/>
</svg>
