<svg width="40" height="40" viewBox="0 0 40 40" fill="none" xmlns="http://www.w3.org/2000/svg">
<g filter="url(#filter0_i_1_46)">
<path fill-rule="evenodd" clip-rule="evenodd" d="M10.0188 0.0376578H29.9812C31.0756 0.0376578 32.0514 0.0260885 32.9212 0.0157751C36.4856 -0.0264862 38.2714 -0.04766 39.156 0.834689C40.0443 1.72065 40.0239 3.51753 39.983 7.11864V7.11874C39.9733 7.97853 39.9623 8.94118 39.9623 10.0188V29.9812C39.9623 31.0784 39.9739 32.0564 39.9842 32.9281C40.0265 36.4984 40.0476 38.2836 39.1656 39.1656C38.2836 40.0476 36.4984 40.0265 32.9281 39.9842C32.0564 39.9739 31.0784 39.9623 29.9812 39.9623H10.0188C8.92158 39.9623 7.94355 39.9739 7.07192 39.9842C3.5016 40.0265 1.71643 40.0476 0.834412 39.1656C-0.0476095 38.2836 -0.0264832 36.4984 0.0157694 32.9281C0.0260844 32.0564 0.0376586 31.0784 0.0376586 29.9812V10.0188C0.0376586 8.92158 0.0260842 7.94356 0.0157689 7.07193C-0.0264842 3.5016 -0.0476108 1.71643 0.834409 0.834413C1.71643 -0.0476094 3.5016 -0.0264834 7.07194 0.0157688C7.94356 0.0260838 8.92158 0.0376578 10.0188 0.0376578ZM20 9.73497C18.6515 9.73447 17.3161 9.99971 16.0702 10.5155C14.8243 11.0314 13.6922 11.7876 12.7387 12.7412C11.7851 13.6947 11.0288 14.8268 10.513 16.0727C9.99721 17.3186 9.73197 18.654 9.73247 20.0025C9.73197 21.351 9.99721 22.6864 10.513 23.9323C11.0288 25.1782 11.7851 26.3103 12.7387 27.2638C13.6922 28.2174 14.8243 28.9736 16.0702 29.4895C17.3161 30.0053 18.6515 30.2705 20 30.27C21.3485 30.2705 22.6839 30.0053 23.9298 29.4895C25.1757 28.9736 26.3078 28.2174 27.2613 27.2638C28.2149 26.3103 28.9711 25.1782 29.487 23.9323C30.0028 22.6864 30.268 21.351 30.2675 20.0025C30.268 18.654 30.0028 17.3186 29.487 16.0727C28.9711 14.8268 28.2149 13.6947 27.2613 12.7412C26.3078 11.7876 25.1757 11.0314 23.9298 10.5155C22.6839 9.99971 21.3485 9.73447 20 9.73497ZM20 26.6696C16.3145 26.6696 13.3329 23.688 13.3329 20.0025C13.3329 16.317 16.3145 13.3354 20 13.3354C23.6855 13.3354 26.6671 16.317 26.6671 20.0025C26.6671 23.688 23.6855 26.6696 20 26.6696ZM33.0816 9.32492C33.081 9.96208 32.8274 10.5729 32.3766 11.0232C31.9258 11.4735 31.3147 11.7265 30.6776 11.7265C30.3625 11.7265 30.0506 11.6644 29.7595 11.5438C29.4684 11.4233 29.204 11.2466 28.9812 11.0238C28.7584 10.801 28.5817 10.5366 28.4612 10.2455C28.3406 9.95443 28.2785 9.64246 28.2785 9.32742C28.2785 9.01237 28.3406 8.70041 28.4612 8.40934C28.5817 8.11827 28.7584 7.8538 28.9812 7.63103C29.204 7.40826 29.4684 7.23155 29.7595 7.11098C30.0506 6.99042 30.3625 6.92837 30.6776 6.92837C31.999 6.92837 33.0816 8.0035 33.0816 9.32492Z" fill="white"/>
</g>
<defs>
<filter id="filter0_i_1_46" x="-1" y="0" width="41" height="41" filterUnits="userSpaceOnUse" color-interpolation-filters="sRGB">
<feFlood flood-opacity="0" result="BackgroundImageFix"/>
<feBlend mode="normal" in="SourceGraphic" in2="BackgroundImageFix" result="shape"/>
<feColorMatrix in="SourceAlpha" type="matrix" values="0 0 0 0 0 0 0 0 0 0 0 0 0 0 0 0 0 0 127 0" result="hardAlpha"/>
<feOffset dx="-1" dy="1"/>
<feGaussianBlur stdDeviation="0.5"/>
<feComposite in2="hardAlpha" operator="arithmetic" k2="-1" k3="1"/>
<feColorMatrix type="matrix" values="0 0 0 0 0 0 0 0 0 0 0 0 0 0 0 0 0 0 1 0"/>
<feBlend mode="normal" in2="shape" result="effect1_innerShadow_1_46"/>
</filter>
</defs>
</svg>
