<svg width="40" height="40" viewBox="0 0 40 40" fill="none" xmlns="http://www.w3.org/2000/svg">
<g filter="url(#filter0_i_1_17)">
<g clip-path="url(#clip0_1_17)">
<path d="M30 -6.10575e-06H10C-1.20465 -6.10575e-06 9.18657e-06 -1.20465 9.18657e-06 10V30C9.18657e-06 41.2047 -1.20464 40 10 40H30C41.2047 40 40 41.2047 40 30V9.99999C40 -1.20466 41.1784 -6.10575e-06 30 -6.10575e-06ZM32.2915 28.5341H29.3878C28.2879 28.5341 27.9491 27.6616 25.9704 25.6567C24.2518 23.9905 23.4905 23.7693 23.0668 23.7693C22.4681 23.7693 22.2981 23.938 22.2981 24.7592V27.3829C22.2981 28.0866 22.0768 28.5091 20.2144 28.5091C17.1345 28.5091 13.7171 26.6467 11.3209 23.1768C7.70727 18.0919 6.71855 14.2833 6.71855 13.4958C6.71855 13.0721 6.88729 12.6758 7.70102 12.6758H10.6109C11.3472 12.6758 11.6271 13.0146 11.9134 13.8021C13.3521 17.9557 15.7483 21.5943 16.737 21.5943C17.102 21.5943 17.2707 21.4256 17.2707 20.4944V16.2045C17.1595 14.2258 16.1183 14.0558 16.1183 13.3533C16.1183 13.0146 16.3982 12.6758 16.847 12.6758H21.4231C22.0418 12.6758 22.2693 13.0146 22.2693 13.7433V19.5306C22.2693 20.1556 22.5493 20.3769 22.7181 20.3769C23.083 20.3769 23.3955 20.1556 24.0718 19.4781C26.1617 17.1345 27.6591 13.5208 27.6591 13.5208C27.8541 13.0971 28.1929 12.7008 28.9291 12.7008H31.839C32.7115 12.7008 32.9065 13.1496 32.7115 13.7746C32.3465 15.467 28.7854 20.4931 28.7854 20.4931C28.4791 21.0006 28.3616 21.2218 28.7854 21.7881C29.0979 22.2118 30.1141 23.0905 30.7903 23.878C32.034 25.2905 32.9902 26.4754 33.2452 27.2954C33.5315 28.1091 33.109 28.5329 32.2878 28.5329L32.2915 28.5341Z" fill="white"/>
</g>
</g>
<defs>
<filter id="filter0_i_1_17" x="-1" y="0" width="41" height="41" filterUnits="userSpaceOnUse" color-interpolation-filters="sRGB">
<feFlood flood-opacity="0" result="BackgroundImageFix"/>
<feBlend mode="normal" in="SourceGraphic" in2="BackgroundImageFix" result="shape"/>
<feColorMatrix in="SourceAlpha" type="matrix" values="0 0 0 0 0 0 0 0 0 0 0 0 0 0 0 0 0 0 127 0" result="hardAlpha"/>
<feOffset dx="-1" dy="1"/>
<feGaussianBlur stdDeviation="0.5"/>
<feComposite in2="hardAlpha" operator="arithmetic" k2="-1" k3="1"/>
<feColorMatrix type="matrix" values="0 0 0 0 0 0 0 0 0 0 0 0 0 0 0 0 0 0 1 0"/>
<feBlend mode="normal" in2="shape" result="effect1_innerShadow_1_17"/>
</filter>
<clipPath id="clip0_1_17">
<rect width="40" height="40" rx="10" fill="white"/>
</clipPath>
</defs>
</svg>
