<svg width="40" height="40" viewBox="0 0 40 40" fill="none" xmlns="http://www.w3.org/2000/svg">
<g filter="url(#filter0_i_1_14)">
<g clip-path="url(#clip0_1_14)">
<path fill-rule="evenodd" clip-rule="evenodd" d="M10 -6.09085e-06H30C31.0965 -6.09085e-06 32.0741 -0.0115972 32.9456 -0.0219301C36.5167 -0.0642712 38.3059 -0.085485 39.1922 0.79853C40.0821 1.68616 40.0617 3.48642 40.0207 7.09431V7.09435C40.0109 7.95579 40 8.92028 40 9.99999V30C40 31.0992 40.0116 32.079 40.0219 32.9522V32.9524C40.0643 36.5295 40.0854 38.3181 39.2017 39.2017C38.3181 40.0854 36.5295 40.0643 32.9525 40.0219H32.9522C32.079 40.0116 31.0992 40 30 40H10C8.90079 40 7.921 40.0116 7.04779 40.0219H7.04754C3.47048 40.0643 1.68194 40.0854 0.798261 39.2017C-0.0854211 38.3181 -0.0642547 36.5295 -0.0219219 32.9525C-0.0115871 32.0792 9.15304e-06 31.0993 9.15304e-06 30V10C9.15304e-06 8.90068 -0.0115869 7.92082 -0.0219214 7.04755C-0.0642537 3.47048 -0.0854199 1.68194 0.798266 0.798253C1.68195 -0.0854343 3.47049 -0.0642683 7.04757 -0.0219364C7.92084 -0.011602 8.9007 -6.09085e-06 10 -6.09085e-06ZM9.05334 19.7883C14.8833 17.2483 18.7717 15.5733 20.7167 14.765C26.2717 12.455 27.425 12.0533 28.1767 12.04C28.3433 12.0367 28.7133 12.0783 28.9517 12.2733C29.1118 12.4115 29.2141 12.6049 29.2383 12.815C29.2789 13.0751 29.29 13.339 29.2717 13.6017C28.97 16.765 27.6667 24.4383 27.005 27.9817C26.725 29.48 26.1717 29.9817 25.6383 30.0317C24.7183 30.115 23.9733 29.585 23.145 28.9933C22.9267 28.8383 22.7033 28.68 22.47 28.5267C21.55 27.9233 20.84 27.44 20.1283 26.955L20.0715 26.9163C19.4386 26.4857 18.7996 26.051 18.0067 25.5283C16.3067 24.4083 17.0167 23.7217 17.9667 22.8083C18.12 22.66 18.28 22.505 18.4367 22.3433C18.5067 22.27 18.8483 21.9517 19.3317 21.5033C20.8817 20.0633 23.8717 17.2817 23.9483 16.96C23.96 16.9067 23.9717 16.71 23.855 16.6067C23.7383 16.5017 23.565 16.5383 23.44 16.5667C23.2633 16.6067 20.4517 18.465 15.005 22.1433C14.2067 22.69 13.4833 22.9567 12.835 22.9433C12.1217 22.9283 10.7483 22.54 9.72667 22.2083C9.61939 22.1726 9.51381 22.1394 9.41054 22.1069C9.36943 22.094 9.32868 22.0811 9.28834 22.0683C8.25167 21.7433 7.48834 21.5033 7.56501 20.8933C7.61001 20.5333 8.10668 20.165 9.05334 19.7883Z" fill="white"/>
</g>
</g>
<defs>
<filter id="filter0_i_1_14" x="-1" y="0" width="41" height="41" filterUnits="userSpaceOnUse" color-interpolation-filters="sRGB">
<feFlood flood-opacity="0" result="BackgroundImageFix"/>
<feBlend mode="normal" in="SourceGraphic" in2="BackgroundImageFix" result="shape"/>
<feColorMatrix in="SourceAlpha" type="matrix" values="0 0 0 0 0 0 0 0 0 0 0 0 0 0 0 0 0 0 127 0" result="hardAlpha"/>
<feOffset dx="-1" dy="1"/>
<feGaussianBlur stdDeviation="0.5"/>
<feComposite in2="hardAlpha" operator="arithmetic" k2="-1" k3="1"/>
<feColorMatrix type="matrix" values="0 0 0 0 0 0 0 0 0 0 0 0 0 0 0 0 0 0 1 0"/>
<feBlend mode="normal" in2="shape" result="effect1_innerShadow_1_14"/>
</filter>
<clipPath id="clip0_1_14">
<rect width="40" height="40" rx="10" fill="white"/>
</clipPath>
</defs>
</svg>
